<svg width="135" height="110" viewBox="0 0 135 110" fill="none" xmlns="http://www.w3.org/2000/svg">
<path d="M83.8796 37.8569C85.5483 37.8569 86.8067 38.1798 87.6548 38.8257C88.5029 39.4716 88.927 40.4839 88.927 41.865H90.1372V39.0249C90.1372 37.2431 88.9934 36.3521 86.7058 36.3521H63.9561V37.3553H64.3595C65.4895 37.3553 66.2437 37.6278 66.6196 38.1729C66.9978 38.718 67.1835 39.5586 67.1835 40.6946L67.1651 50.5293H53.921C53.898 50.5316 53.8751 50.5293 53.8522 50.5293C53.7788 50.5247 53.7078 50.5132 53.6367 50.4949C53.6367 50.4995 53.6321 50.5041 53.6299 50.5087C52.6144 50.3575 51.8374 49.4826 51.8374 48.4268C51.8374 48.1061 51.9084 47.8038 52.0368 47.5312L52.0918 47.4236L52.9651 45.7013C52.9789 45.6692 52.9926 45.6371 53.0087 45.6051C53.0293 45.557 53.0522 45.5112 53.0774 45.4631L53.7788 44.0797L70.5002 11.1425V28.5352H74.6697V4.30353C74.6697 3.39885 74.8828 2.50562 75.2931 1.69713C75.4284 1.46352 75.6186 1.28717 75.8662 1.17036C76.1114 1.05355 76.414 0.996294 76.7716 0.996294H77.0444V0H68.953L67.1605 3.53398L45.8113 45.5959C45.77 45.6784 45.7288 45.7631 45.6921 45.8478C45.66 45.9234 45.6279 45.999 45.5981 46.0746C45.55 46.1479 45.5064 46.2235 45.4629 46.3013L45.2887 46.6426L45.2841 46.654C45.0228 47.2312 44.8784 47.8725 44.8784 48.5458C44.8784 49.8147 45.3918 50.9621 46.2239 51.7935C46.3591 51.931 46.5035 52.0569 46.6571 52.176C46.8863 52.3524 47.1316 52.5104 47.3906 52.641C47.5648 52.7303 47.7436 52.8059 47.9269 52.8723C48.0186 52.9066 48.1126 52.9364 48.2089 52.9639C48.5114 53.0326 48.8438 53.083 49.2083 53.1151C49.3275 53.1242 49.4489 53.1334 49.575 53.1403H49.5796C49.7263 53.1471 49.8776 53.1517 50.0334 53.154H67.1628L67.1353 68.7145H85.4543C86.4766 68.7145 87.2308 68.5267 87.7144 68.1465C88.2003 67.7686 88.6152 67.1777 88.9659 66.3761L90.1372 63.7376L89.0484 63.4032C88.3745 64.8072 87.5264 65.792 86.5064 66.36C85.4818 66.928 84.2051 67.212 82.6716 67.212H74.9149L74.9401 53.1563H86.3941V50.5316H74.9424L74.9654 37.8615H83.8819L83.8796 37.8569Z" fill="black"/>
<path d="M39.9731 109.858V103.285H38.8637V105.82H35.5561V103.285H34.4467V109.858H35.5561V106.842H38.8637V109.858H39.9731Z" fill="black"/>
<path d="M53.4075 104.134C53.0981 103.83 52.7359 103.594 52.321 103.424C51.9084 103.255 51.4523 103.17 50.9595 103.17C50.4667 103.17 50.0266 103.255 49.6117 103.424C49.1945 103.594 48.8324 103.83 48.5206 104.134C48.2112 104.439 47.9705 104.796 47.8009 105.209C47.6313 105.621 47.5464 106.077 47.5464 106.569C47.5464 107.062 47.6313 107.513 47.8009 107.932C47.9705 108.351 48.2066 108.715 48.5115 109.022C48.8163 109.329 49.1762 109.567 49.5979 109.741C50.0174 109.913 50.4713 110 50.9618 110C51.4523 110 51.913 109.913 52.3279 109.741C52.7451 109.569 53.1072 109.329 53.4144 109.022C53.7216 108.715 53.9599 108.353 54.1296 107.932C54.2992 107.513 54.384 107.059 54.384 106.569C54.384 106.079 54.2992 105.621 54.1296 105.209C53.9599 104.794 53.7215 104.437 53.4098 104.134M52.9124 107.778C52.7222 108.133 52.4586 108.408 52.1239 108.61C51.7893 108.811 51.4019 108.91 50.9641 108.91C50.5263 108.91 50.1458 108.809 49.8088 108.61C49.4719 108.411 49.206 108.133 49.0157 107.778C48.8255 107.426 48.7292 107.023 48.7292 106.571C48.7292 106.12 48.8255 105.719 49.0157 105.364C49.206 105.012 49.4719 104.735 49.8088 104.533C50.1458 104.331 50.5331 104.233 50.9641 104.233C51.395 104.233 51.7984 104.334 52.1331 104.533C52.4677 104.735 52.729 105.009 52.917 105.364C53.105 105.719 53.1989 106.12 53.1989 106.571C53.1989 107.023 53.1027 107.426 52.9124 107.778Z" fill="black"/>
<path d="M61.0703 104.306H62.8008V109.858H63.9194V104.306H65.6569V103.285H61.0703V104.306Z" fill="black"/>
<path d="M73.6359 103.285H72.9506V109.858H73.6359H74.0393H76.9527V108.88H74.0393V106.814H76.7647V105.857H74.0393V104.26H76.9527V103.285H74.0393H73.6359Z" fill="black"/>
<path d="M84.801 103.285V109.858H88.5212V108.862H85.9104V103.285H84.801Z" fill="black"/>
<path d="M97.9283 109.001C97.6785 109.001 97.4515 108.949 97.2521 108.846C97.0504 108.743 96.8693 108.596 96.702 108.404C96.537 108.214 96.3811 107.991 96.2367 107.742L95.4092 108.314C95.5536 108.614 95.7485 108.894 95.9914 109.15C96.2367 109.407 96.5232 109.613 96.851 109.766C97.1788 109.92 97.5386 109.998 97.926 109.998C98.208 109.998 98.4784 109.952 98.7397 109.86C98.9987 109.769 99.2326 109.64 99.4388 109.476C99.6451 109.311 99.8079 109.104 99.9271 108.862C100.046 108.617 100.106 108.342 100.106 108.035C100.106 107.746 100.058 107.497 99.9592 107.284C99.8629 107.071 99.7322 106.885 99.5695 106.725C99.4068 106.564 99.2257 106.432 99.0285 106.326C98.8314 106.221 98.6366 106.132 98.4418 106.063C98.091 105.937 97.8068 105.816 97.5868 105.696C97.3667 105.577 97.2063 105.451 97.1031 105.316C97 105.181 96.9473 105.03 96.9473 104.86C96.9473 104.673 97.0183 104.508 97.1627 104.368C97.3071 104.226 97.5318 104.157 97.8389 104.157C98.059 104.157 98.2515 104.199 98.4165 104.283C98.5839 104.368 98.7283 104.48 98.8543 104.622C98.9781 104.762 99.0836 104.915 99.1638 105.078L100.067 104.572C99.9546 104.341 99.7987 104.118 99.6016 103.905C99.4045 103.692 99.1615 103.518 98.8727 103.379C98.5839 103.241 98.2446 103.173 97.8573 103.173C97.4699 103.173 97.11 103.246 96.8006 103.392C96.4911 103.539 96.2436 103.745 96.0625 104.013C95.8814 104.279 95.7897 104.588 95.7897 104.938C95.7897 105.245 95.8493 105.506 95.9685 105.722C96.0877 105.937 96.2367 106.12 96.4201 106.267C96.6011 106.413 96.7937 106.537 96.9931 106.633C97.1925 106.729 97.3759 106.807 97.5386 106.865C97.8137 106.965 98.0567 107.066 98.2675 107.169C98.4784 107.272 98.6412 107.398 98.7604 107.545C98.8796 107.691 98.9392 107.888 98.9392 108.131C98.9392 108.388 98.8452 108.598 98.6572 108.761C98.4693 108.924 98.224 109.006 97.9237 109.006" fill="black"/>
<path d="M1.3753 83.5879C1.57014 83.9292 1.66641 84.4514 1.66641 85.1591V96.1939H4.37575V89.6367H8.96009V88.6999H4.37575V83.3909H7.27305C8.13491 83.3909 8.78359 83.5879 9.22139 83.9841C9.6592 84.3804 9.87695 85.0148 9.87695 85.8897H10.5027V84.1193C10.5027 83.0085 9.91134 82.4542 8.73087 82.4542H0V83.0794H0.208587C0.79309 83.0794 1.18047 83.2489 1.3753 83.5902" fill="black"/>
<path d="M18.6377 86.8768C17.8812 86.4256 16.9942 86.2012 15.981 86.2012C14.9679 86.2012 14.0808 86.4279 13.3244 86.8768C12.568 87.328 11.9881 87.9396 11.5847 88.7091C11.1812 89.4787 10.9795 90.3444 10.9795 91.3018C10.9795 92.2591 11.1812 93.1226 11.5847 93.8944C11.9881 94.664 12.568 95.2755 13.3244 95.7267C14.0808 96.1779 14.9679 96.4023 15.981 96.4023C16.9942 96.4023 17.8812 96.1779 18.6377 95.7267C19.3941 95.2755 19.974 94.664 20.3774 93.8944C20.7808 93.1249 20.9825 92.2591 20.9825 91.3018C20.9825 90.3444 20.7808 89.4809 20.3774 88.7091C19.974 87.9396 19.3941 87.328 18.6377 86.8768ZM17.6062 94.3204C17.2303 95.0831 16.6893 95.4656 15.981 95.4656C15.2728 95.4656 14.7318 95.0831 14.3559 94.3204C13.98 93.5577 13.7943 92.55 13.7943 91.3018C13.7943 90.0535 13.9823 89.0458 14.3559 88.2831C14.7318 87.5204 15.2728 87.1379 15.981 87.1379C16.6893 87.1379 17.2303 87.5204 17.6062 88.2831C17.9821 89.0458 18.1678 90.0535 18.1678 91.3018C18.1678 92.55 17.9798 93.5577 17.6062 94.3204Z" fill="black"/>
<path d="M21.732 86.4096V87.0349H21.9406C22.5251 87.0349 22.9125 87.2043 23.1073 87.5456C23.3022 87.8869 23.3984 88.4091 23.3984 89.1168V92.5729C23.3984 93.9059 23.7102 94.877 24.3359 95.4885C24.9617 96.1 25.9336 96.4046 27.2516 96.4046C28.0011 96.4046 28.6406 96.2168 29.1678 95.8412C29.4314 95.6603 29.6606 95.4656 29.8555 95.2594H29.9586L30.6875 96.1962H32.4594V86.4119H29.75V94.1143C29.5827 94.4189 29.4223 94.6479 29.271 94.8014C28.8538 95.2457 28.3885 95.4679 27.875 95.4679C27.2768 95.4679 26.8344 95.2503 26.541 94.8128C26.2499 94.3754 26.1032 93.6356 26.1032 92.5958V89.1191C26.1032 88.4114 26.0482 87.8663 25.9359 87.4861C25.8236 87.1036 25.6379 86.831 25.3743 86.6638C25.1107 86.4966 24.7279 86.4142 24.2282 86.4142H21.7274L21.732 86.4096Z" fill="black"/>
<path d="M33.9401 87.0326H34.1487C34.7309 87.0326 35.1183 87.202 35.304 87.5433C35.4919 87.8846 35.5859 88.4068 35.5859 89.1145V96.1939H38.2952V89.1992C38.2952 88.9908 38.2815 88.7618 38.254 88.5121L38.2127 88.2006C38.6437 87.77 39.2602 87.5548 40.0671 87.5548C40.4705 87.5548 40.8235 87.6945 41.1307 87.9716C41.2842 88.1113 41.408 88.2419 41.5066 88.3678L42.5701 87.557C42.5701 87.5433 42.5151 87.4288 42.4028 87.2135C42.2905 86.9982 42.1117 86.8012 41.8619 86.6203C41.4722 86.3432 40.9794 86.2035 40.3834 86.2035C39.384 86.2035 38.5084 86.5287 37.7589 87.1814C37.6053 86.9043 37.3944 86.7073 37.1239 86.5882C36.8535 86.4714 36.4821 86.4119 36.01 86.4119H33.947V87.0371L33.9401 87.0326Z" fill="black"/>
<path d="M48.5665 83.0772H48.7751C49.3573 83.0772 49.7469 83.2466 49.9418 83.5879C50.1366 83.9292 50.2329 84.4513 50.2329 85.1591V96.1939H57.9414C58.4686 96.1939 58.8583 96.0771 59.1081 95.8389C59.358 95.603 59.5735 95.2342 59.7545 94.7349L60.3597 93.0905L59.7981 92.8821C59.4497 93.757 59.0142 94.3708 58.4847 94.7235C57.9575 95.0762 57.2973 95.2548 56.5042 95.2548H52.9422V89.529H58.3586V88.5923H52.9422V83.3886H56.2979C57.1598 83.3886 57.8085 83.5902 58.2463 83.9933C58.6841 84.3964 58.9019 85.0285 58.9019 85.8874H59.5276V84.117C59.5276 83.0061 58.9362 82.4519 57.7558 82.4519H48.5665V83.0772Z" fill="black"/>
<path d="M64.277 82.7038C64.0134 82.5366 63.6306 82.4542 63.1309 82.4542H60.6302V83.0794H60.8387C61.4232 83.0794 61.8106 83.2489 62.0055 83.5902C62.2003 83.9315 62.2966 84.4536 62.2966 85.1614V96.1962H65.0059V85.1614C65.0059 84.4536 64.9509 83.9086 64.8386 83.5261C64.7286 83.1436 64.5406 82.871 64.277 82.7038Z" fill="black"/>
<path d="M69.549 86.7944C68.8545 87.1906 68.3089 87.7701 67.9124 88.5327C67.5159 89.2954 67.3187 90.2184 67.3187 91.3018C67.3187 92.2729 67.5159 93.1432 67.9124 93.915C68.3089 94.6846 68.8682 95.2938 69.5903 95.7358C70.3123 96.1802 71.1535 96.4023 72.1117 96.4023C73.1248 96.4023 73.9339 96.1939 74.5391 95.7771C75.1442 95.3602 75.6462 94.8403 76.0496 94.2151L75.4032 93.7364C74.986 94.2906 74.5528 94.7189 74.1013 95.0167C73.6497 95.3144 73.0904 95.4633 72.4234 95.4633C71.7013 95.4633 71.1375 95.161 70.7363 94.5586C70.3329 93.954 70.1312 92.9943 70.1312 91.6751H76.4026L76.4438 91.2582C76.4714 90.9239 76.4851 90.6261 76.4851 90.3627C76.4851 89.5451 76.2834 88.819 75.88 88.1869C75.4766 87.5548 74.9287 87.0669 74.2342 86.7188C73.5397 86.373 72.7626 86.1989 71.9008 86.1989C71.0389 86.1989 70.2412 86.3959 69.5467 86.7921M73.2142 87.9579C73.519 88.5076 73.6726 89.4328 73.6726 90.7383H70.1312C70.1312 89.4626 70.294 88.5419 70.6217 87.9808C70.9472 87.4197 71.3759 87.1379 71.9031 87.1379C72.4715 87.1379 72.9093 87.4128 73.2165 87.9602" fill="black"/>
<path d="M81.2161 87.1998C80.9388 86.673 80.3474 86.4096 79.4443 86.4096H77.3813V87.0349H77.5899C78.1721 87.0349 78.5595 87.2044 78.7452 87.5456C78.9331 87.8869 79.0271 88.4091 79.0271 89.1168V96.1962H81.7365V89.1809C81.7365 88.8053 81.709 88.535 81.654 88.3678L81.5921 88.077C81.7456 87.8685 81.9771 87.6785 82.2912 87.5044C82.6029 87.3303 82.9055 87.2433 83.1966 87.2433C83.6963 87.2433 84.0997 87.4654 84.4046 87.9098C84.7094 88.3541 84.863 89.0549 84.863 90.0123V96.1962H87.5723V90.0329C87.5723 89.4214 87.5173 88.9084 87.405 88.4915C87.3225 88.2419 87.2652 88.0884 87.2377 88.0335C87.4188 87.7975 87.6686 87.6075 87.9872 87.4609C88.3058 87.3143 88.6542 87.2433 89.0279 87.2433C89.5275 87.2433 89.931 87.4654 90.2358 87.9098C90.5407 88.3541 90.6943 89.0549 90.6943 90.0123V96.1962H93.4036V90.0329C93.4036 87.4792 92.1888 86.2012 89.7568 86.2012C89.0347 86.2012 88.4434 86.3088 87.9849 86.5241C87.5265 86.7394 87.1299 87.028 86.7976 87.3876C86.5752 87.1104 86.2108 86.8425 85.7042 86.586C85.1976 86.3294 84.604 86.2012 83.9232 86.2012C82.9376 86.2012 82.062 86.5333 81.2987 87.1998H81.2161Z" fill="black"/>
<path d="M96.145 88.5327C95.7485 89.2954 95.5513 90.2184 95.5513 91.3018C95.5513 92.2729 95.7485 93.1432 96.145 93.915C96.5416 94.6846 97.1008 95.2938 97.8229 95.7358C98.5449 96.1802 99.3861 96.4023 100.344 96.4023C101.357 96.4023 102.167 96.1939 102.772 95.7771C103.377 95.3602 103.879 94.8403 104.282 94.2151L103.636 93.7364C103.219 94.2929 102.785 94.7189 102.334 95.0167C101.882 95.3144 101.323 95.4633 100.656 95.4633C99.934 95.4633 99.3701 95.161 98.969 94.5586C98.5655 93.954 98.3638 92.9943 98.3638 91.6751H104.635L104.676 91.2582C104.704 90.9261 104.718 90.6261 104.718 90.3627C104.718 89.5428 104.516 88.819 104.113 88.1869C103.709 87.5548 103.161 87.0669 102.467 86.7188C101.772 86.373 100.995 86.1989 100.133 86.1989C99.2715 86.1989 98.4738 86.3959 97.7793 86.7921C97.0848 87.1883 96.5393 87.7678 96.145 88.5305M98.8543 87.9785C99.1798 87.4174 99.6085 87.1356 100.136 87.1356C100.704 87.1356 101.142 87.4105 101.449 87.9579C101.754 88.5053 101.908 89.4328 101.908 90.7383H98.3661C98.3661 89.4603 98.5289 88.5419 98.8566 87.9785" fill="black"/>
<path d="M112.47 86.2012C111.15 86.2012 110.136 86.5287 109.428 87.1792C109.275 86.902 109.064 86.7051 108.793 86.586C108.523 86.4692 108.151 86.4096 107.679 86.4096H105.616V87.0349H105.825C106.407 87.0349 106.794 87.2044 106.98 87.5456C107.168 87.8869 107.262 88.4091 107.262 89.1168V96.1962H109.971V88.9931C109.971 88.6175 109.944 88.3472 109.889 88.1823L109.827 87.8915C110.022 87.6968 110.281 87.541 110.609 87.4219C110.934 87.3051 111.315 87.2456 111.743 87.2456C112.355 87.2456 112.837 87.4677 113.192 87.9121C113.547 88.3564 113.724 89.0572 113.724 90.0146V96.1985H116.433V90.0352C116.433 88.716 116.103 87.7494 115.443 87.1311C114.783 86.515 113.792 86.2035 112.474 86.2035" fill="black"/>
<path d="M120.511 83.2856L119.468 84.5338V86.4073H118.219V87.3441H119.468V93.3608C119.468 94.3456 119.731 95.0991 120.259 95.619C120.786 96.1389 121.529 96.4 122.489 96.4C123.28 96.4 123.967 96.2466 124.552 95.942C124.802 95.7885 125.017 95.6373 125.198 95.4839L124.907 94.9022C124.74 95.0144 124.579 95.1106 124.428 95.193C124.038 95.374 123.649 95.4633 123.261 95.4633C122.899 95.4633 122.629 95.3213 122.448 95.0373C122.267 94.7533 122.177 94.2357 122.177 93.4867V87.3464H124.469V86.4096H122.177V83.2856H120.511Z" fill="black"/>
<path d="M128.845 91.9041L129.929 92.3622C130.583 92.6531 131.057 92.9187 131.357 93.1523C131.655 93.3883 131.804 93.686 131.804 94.0479C131.804 94.9915 131.11 95.4633 129.721 95.4633C128.93 95.4633 128.311 95.2457 127.866 94.8083C127.422 94.3708 127.137 93.7913 127.011 93.0699H126.282C126.282 93.7501 126.31 94.2815 126.365 94.6617C126.42 95.0442 126.56 95.3373 126.782 95.5457C127.394 96.116 128.51 96.4 130.138 96.4C131.415 96.4 132.446 96.1596 133.232 95.6809C134.016 95.2022 134.41 94.5197 134.41 93.631C134.41 92.9233 134.184 92.3507 133.732 91.9133C133.28 91.4758 132.54 91.043 131.513 90.6124L130.264 90.0925C129.764 89.8703 129.393 89.6459 129.15 89.4168C128.907 89.1878 128.786 88.8992 128.786 88.5534C128.786 88.1228 128.932 87.7792 129.223 87.5227C129.514 87.2662 129.959 87.1379 130.557 87.1379C131.348 87.1379 131.967 87.3555 132.412 87.793C132.856 88.2304 133.141 88.8099 133.267 89.5313H133.996C133.996 88.8374 133.968 88.3037 133.913 87.9281C133.858 87.5525 133.718 87.2616 133.496 87.0532C132.884 86.4852 131.768 86.1989 130.142 86.1989C128.962 86.1989 128.006 86.4417 127.277 86.9272C126.548 87.4128 126.184 88.093 126.184 88.9679C126.184 89.6207 126.406 90.1749 126.851 90.633C127.296 91.091 127.963 91.5148 128.852 91.9018" fill="black"/>
</svg>
