<svg width="24" height="24" viewBox="0 0 24 24" fill="none" xmlns="http://www.w3.org/2000/svg">
<path d="M18.97 21.6295H4.97C1.97 21.6295 1.97 20.3295 1.97 18.7406V17.7777C1.97 17.248 2.42 16.8147 2.97 16.8147H20.97C21.52 16.8147 21.97 17.248 21.97 17.7777V18.7406C21.97 20.3295 21.97 21.6295 18.97 21.6295Z" stroke="#292D32" stroke-width="1.5" stroke-linecap="round" stroke-linejoin="round"/>
<path d="M20.72 12.9627V16.8146H3.27V12.9627C3.27 9.26496 5.98 6.17385 9.59 5.43237C10.13 5.31681 10.69 5.25903 11.27 5.25903H12.72C13.3 5.25903 13.87 5.31681 14.41 5.43237C18.02 6.18348 20.72 9.26496 20.72 12.9627Z" stroke="#292D32" stroke-width="1.5" stroke-linecap="round" stroke-linejoin="round"/>
<path d="M14.5 4.77777C14.5 5.00888 14.47 5.22073 14.41 5.43258C13.87 5.31703 13.3 5.25925 12.72 5.25925H11.27C10.69 5.25925 10.13 5.31703 9.59 5.43258C9.53 5.22073 9.5 5.00888 9.5 4.77777C9.5 3.44888 10.62 2.37036 12 2.37036C13.38 2.37036 14.5 3.44888 14.5 4.77777Z" stroke="#292D32" stroke-width="1.5" stroke-linecap="round" stroke-linejoin="round"/>
<path d="M15 11.0369H9" stroke="#292D32" stroke-width="1.5" stroke-linecap="round" stroke-linejoin="round"/>
</svg>
