<svg width="48" height="48" viewBox="0 0 48 48" fill="none" xmlns="http://www.w3.org/2000/svg">
<path d="M31.9157 24.9237C31.5277 24.4401 31.6387 24.2249 31.9157 23.7926C31.9207 23.7877 35.1238 19.4192 35.4538 17.9377L35.4558 17.9367C35.6198 17.3968 35.4558 17 34.6628 17H32.0387C31.3707 17 31.0627 17.3405 30.8977 17.7215C30.8977 17.7215 29.5616 20.878 27.6715 22.9241C27.0615 23.5153 26.7795 23.7048 26.4465 23.7048C26.2825 23.7048 26.0275 23.5153 26.0275 22.9754V17.9367C26.0275 17.2892 25.8405 17 25.2875 17H21.1613C20.7423 17 20.4933 17.302 20.4933 17.5833C20.4933 18.1972 21.4383 18.3384 21.5363 20.0657V23.8134C21.5363 24.6345 21.3853 24.7856 21.0503 24.7856C20.1583 24.7856 17.9932 21.6163 16.7102 17.989C16.4512 17.2852 16.1981 17.001 15.5251 17.001H12.9C12.151 17.001 12 17.3415 12 17.7225C12 18.3956 12.892 21.7426 16.1481 26.1644C18.3182 29.1827 21.3743 30.8182 24.1544 30.8182C25.8255 30.8182 26.0295 30.455 26.0295 29.8302C26.0295 26.9461 25.8785 26.6737 26.7155 26.6737C27.1035 26.6737 27.7715 26.8632 29.3316 28.3191C31.1147 30.0454 31.4077 30.8182 32.4057 30.8182H35.0298C35.7778 30.8182 36.1568 30.455 35.9388 29.7384C35.4398 28.2312 32.0677 25.131 31.9157 24.9237Z" fill="#640920"/>
<circle cx="24" cy="24" r="23.5" stroke="#AC9B87"/>
</svg>
