<svg width="48" height="48" viewBox="0 0 48 48" fill="none" xmlns="http://www.w3.org/2000/svg">
<path d="M35.469 18.39L35.499 18.5829C35.209 17.5704 34.426 16.7891 33.431 16.5048L33.41 16.4999C31.5391 16 24.0101 16 24.0101 16C24.0101 16 16.5002 15.9902 14.6103 16.4999C13.5963 16.7891 12.8123 17.5704 12.5273 18.5622L12.5223 18.5829C11.8233 22.1753 11.8183 26.4919 12.5533 30.3382L12.5223 30.1434C12.8123 31.1559 13.5953 31.9372 14.5903 32.2215L14.6113 32.2264C16.4802 32.7273 24.0111 32.7273 24.0111 32.7273C24.0111 32.7273 31.5201 32.7273 33.411 32.2264C34.426 31.9372 35.21 31.1559 35.495 30.1641L35.5 30.1434C35.818 28.4726 36 26.55 36 24.586C36 24.5142 36 24.4414 35.999 24.3686C36 24.3017 36 24.222 36 24.1423C36 22.1773 35.818 20.2546 35.469 18.39ZM21.6082 27.9561V20.7801L27.8741 24.3735L21.6082 27.9561Z" fill="#640920"/>
<circle cx="24" cy="24" r="23.5" stroke="#AC9B87"/>
</svg>
